<svg version="1.1" id="Layer_1" xmlns="http://www.w3.org/2000/svg" xmlns:xlink="http://www.w3.org/1999/xlink" x="0px" y="0px"
	 width="100%" viewBox="0 0 240 240" enable-background="new 0 0 240 240" xml:space="preserve">
<path fill="#0AA29D" opacity="1.000000" stroke="none" 
	d="
M173.000000,241.000000 
	C153.979111,241.000000 134.958206,241.000000 115.550674,240.660690 
	C118.965149,236.052795 122.716873,231.738968 126.577835,227.525238 
	C134.224869,219.179489 142.037262,210.981277 149.506149,202.480331 
	C150.682205,201.141739 150.415802,198.535797 151.133087,196.310028 
	C173.146866,192.924347 190.864914,173.353821 193.475037,149.854843 
	C198.308136,144.504715 202.760284,139.224442 207.416580,134.130768 
	C212.329529,128.756378 217.454147,123.576019 222.455185,118.281494 
	C227.562698,112.874229 232.586517,107.386604 237.772934,102.056717 
	C238.472168,101.338150 239.906204,101.334625 241.000000,101.000000 
	C241.000000,123.020897 241.000000,145.041794 240.666580,167.612213 
	C239.063309,169.184875 237.636749,170.065140 236.550919,171.256058 
	C232.009644,176.236893 227.731522,181.466019 223.057648,186.315689 
	C215.474472,194.184052 207.627548,201.797577 199.950012,209.575974 
	C196.238617,213.336121 192.664520,217.231598 189.018295,221.056290 
	C185.849915,224.379730 182.985153,228.097519 179.400970,230.889801 
	C175.900711,233.616684 173.425903,236.539825 173.000000,241.000000 
z"/>
<path fill="#0BB2AD" opacity="1.000000" stroke="none" 
	d="
M10.000002,241.000000 
	C7.020661,241.000000 4.041321,241.000000 1.000000,241.000000 
	C1.000000,222.979141 1.000000,204.958237 1.337922,186.387054 
	C5.472838,182.478394 9.489006,179.334534 13.025671,175.721313 
	C23.565926,164.952927 33.986122,154.063889 44.266289,143.047562 
	C45.724781,141.484619 46.144676,138.952484 47.404945,136.921661 
	C51.375286,138.617966 54.885036,140.551682 58.616001,141.849396 
	C68.792786,145.389069 78.884766,144.350967 88.875374,140.264908 
	C89.275856,146.091156 89.650017,151.534454 89.693604,157.065323 
	C80.417992,166.177414 71.320175,175.057053 62.578999,184.274887 
	C56.241257,190.958221 50.667049,198.374100 44.233437,204.956085 
	C33.967392,215.458862 23.224815,225.494629 12.811023,235.855804 
	C11.482801,237.177322 10.918311,239.266479 10.000002,241.000000 
z"/>
<path fill="#0BB3AE" opacity="1.000000" stroke="none" 
	d="
M173.000000,1.000000 
	C190.020889,1.000000 207.041794,1.000000 224.458496,1.346224 
	C223.062790,4.462277 221.670029,7.620821 219.412628,9.936487 
	C207.979431,21.664732 196.147736,33.008163 184.844452,44.857292 
	C181.276352,48.597683 178.911819,53.486187 175.641235,57.794556 
	C165.618149,53.492496 156.153915,53.629494 147.440536,59.897038 
	C135.595383,68.417252 133.642059,80.083733 137.930786,92.276672 
	C128.692749,95.400536 120.036720,98.327599 111.252876,101.297874 
	C110.706673,92.554573 106.645088,84.917191 101.245529,77.868591 
	C103.008057,76.640808 104.674088,75.757828 105.878914,74.449982 
	C111.374290,68.484726 116.594955,62.262177 122.180153,56.384697 
	C137.936798,39.803467 153.855896,23.376621 169.608109,6.791238 
	C171.108246,5.211760 171.886566,2.946750 173.000000,1.000000 
z"/>
<path fill="#0AACA8" opacity="1.000000" stroke="none" 
	d="
M10.468658,241.000000 
	C10.918311,239.266479 11.482801,237.177322 12.811023,235.855804 
	C23.224815,225.494629 33.967392,215.458862 44.233437,204.956085 
	C50.667049,198.374100 56.241257,190.958221 62.578999,184.274887 
	C71.320175,175.057053 80.417992,166.177414 89.875351,157.387604 
	C93.853516,169.620728 100.482750,179.502136 110.150467,187.679947 
	C107.471184,191.648972 105.022232,195.340042 102.247406,198.767273 
	C100.281448,201.195480 97.844749,203.238037 95.671005,205.503433 
	C90.042488,211.369293 84.289047,217.125534 78.876717,223.185638 
	C73.726166,228.952591 68.944084,235.048630 64.000000,241.000000 
	C46.312439,241.000000 28.624876,241.000000 10.468658,241.000000 
z"/>
<path fill="#0AA8A3" opacity="1.000000" stroke="none" 
	d="
M241.000000,100.531342 
	C239.906204,101.334625 238.472168,101.338150 237.772934,102.056717 
	C232.586517,107.386604 227.562698,112.874229 222.455185,118.281494 
	C217.454147,123.576019 212.329529,128.756378 207.416580,134.130768 
	C202.760284,139.224442 198.308136,144.504715 193.387909,149.402023 
	C192.978119,144.966644 192.946655,140.832169 192.804337,136.409454 
	C192.505081,135.755722 192.316681,135.390259 192.023056,134.645874 
	C189.441635,122.843399 183.432312,113.485703 174.527222,105.479683 
	C181.463623,102.329117 185.678741,97.138390 189.199890,90.927780 
	C192.605530,89.143158 195.848938,87.643654 198.548798,85.469261 
	C200.823303,83.637428 202.335358,80.892792 204.413971,78.777260 
	C209.944839,73.148117 215.616959,67.657959 221.182129,62.062019 
	C221.864944,61.375412 222.076813,60.205582 222.780930,59.557327 
	C228.818146,53.999325 234.918503,48.509907 241.000000,43.000000 
	C241.000000,62.020893 241.000000,81.041786 241.000000,100.531342 
z"/>
<path fill="#0BADA8" opacity="1.000000" stroke="none" 
	d="
M241.000000,42.531342 
	C234.918503,48.509907 228.818146,53.999325 222.780930,59.557327 
	C222.076813,60.205582 221.864944,61.375412 221.182129,62.062019 
	C215.616959,67.657959 209.944839,73.148117 204.413971,78.777260 
	C202.335358,80.892792 200.823303,83.637428 198.548798,85.469261 
	C195.848938,87.643654 192.605530,89.143158 189.238007,90.530258 
	C190.939682,82.282944 191.581604,74.442337 186.214752,67.671082 
	C183.306854,64.002274 179.434021,61.098259 175.996475,57.849243 
	C178.911819,53.486187 181.276352,48.597683 184.844452,44.857292 
	C196.147736,33.008163 207.979431,21.664732 219.412628,9.936487 
	C221.670029,7.620821 223.062790,4.462277 224.927155,1.346224 
	C230.292770,1.000000 235.585541,1.000000 241.000000,1.000000 
	C241.000000,14.687359 241.000000,28.375021 241.000000,42.531342 
z"/>
<path fill="#0A9C98" opacity="1.000000" stroke="none" 
	d="
M173.468658,241.000000 
	C173.425903,236.539825 175.900711,233.616684 179.400970,230.889801 
	C182.985153,228.097519 185.849915,224.379730 189.018295,221.056290 
	C192.664520,217.231598 196.238617,213.336121 199.950012,209.575974 
	C207.627548,201.797577 215.474472,194.184052 223.057648,186.315689 
	C227.731522,181.466019 232.009644,176.236893 236.550919,171.256058 
	C237.636749,170.065140 239.063309,169.184875 240.666580,168.080872 
	C241.000000,192.257599 241.000000,216.515182 241.000000,241.000000 
	C218.646286,241.000000 196.291794,241.000000 173.468658,241.000000 
z"/>
<path fill="#0AA7A2" opacity="1.000000" stroke="none" 
	d="
M64.468658,241.000000 
	C68.944084,235.048630 73.726166,228.952591 78.876717,223.185638 
	C84.289047,217.125534 90.042488,211.369293 95.671005,205.503433 
	C97.844749,203.238037 100.281448,201.195480 102.247406,198.767273 
	C105.022232,195.340042 107.471184,191.648972 110.480026,187.829498 
	C122.960304,196.133102 136.373459,198.626495 150.816345,196.515854 
	C150.415802,198.535797 150.682205,201.141739 149.506149,202.480331 
	C142.037262,210.981277 134.224869,219.179489 126.577835,227.525238 
	C122.716873,231.738968 118.965149,236.052795 115.082016,240.660690 
	C98.312439,241.000000 81.624878,241.000000 64.468658,241.000000 
z"/>
<path fill="#29BEBA" opacity="1.000000" stroke="none" 
	d="
M105.000000,1.000002 
	C110.022095,1.000000 115.044182,1.000000 120.453583,1.332808 
	C111.765793,11.735574 102.817528,21.923662 93.579498,31.841854 
	C84.561729,41.523575 75.186737,50.872189 66.137009,60.524960 
	C64.922379,61.820522 64.693489,64.040245 63.616089,65.912735 
	C46.554432,69.194725 31.428801,82.879860 30.464518,104.036423 
	C28.493341,104.837730 26.482746,105.235764 25.330633,106.449013 
	C20.086630,111.971352 15.209728,117.843323 9.942717,123.342361 
	C7.241396,126.162689 3.998270,128.464081 1.000000,131.000000 
	C1.000000,124.312355 1.000000,117.624710 1.332692,110.388657 
	C3.215133,108.622246 4.944062,107.574211 6.286182,106.159271 
	C16.678574,95.203056 26.911383,84.094704 37.355812,73.188805 
	C55.502014,54.240845 73.832207,35.468773 91.932053,16.476942 
	C96.581856,11.597990 100.659508,6.173744 105.000000,1.000002 
z"/>
<path fill="#30C0BC" opacity="1.000000" stroke="none" 
	d="
M104.533142,1.000002 
	C100.659508,6.173744 96.581856,11.597990 91.932053,16.476942 
	C73.832207,35.468773 55.502014,54.240845 37.355812,73.188805 
	C26.911383,84.094704 16.678574,95.203056 6.286182,106.159271 
	C4.944062,107.574211 3.215133,108.622246 1.332692,109.920120 
	C1.000000,104.977905 1.000000,99.955818 1.332824,94.386635 
	C3.674219,92.140160 5.864933,90.612846 7.660485,88.712212 
	C16.399612,79.461632 24.959738,70.041634 33.720276,60.811676 
	C48.453987,45.288479 63.360130,29.928490 78.039230,14.354224 
	C81.979828,10.173321 85.361664,5.465784 89.000000,1.000001 
	C94.022095,1.000000 99.044182,1.000000 104.533142,1.000002 
z"/>
<path fill="#38C2BF" opacity="1.000000" stroke="none" 
	d="
M88.532059,1.000001 
	C85.361664,5.465784 81.979828,10.173321 78.039230,14.354224 
	C63.360130,29.928490 48.453987,45.288479 33.720276,60.811676 
	C24.959738,70.041634 16.399612,79.461632 7.660485,88.712212 
	C5.864933,90.612846 3.674219,92.140160 1.332824,93.919769 
	C1.000000,87.645599 1.000000,81.291206 1.339104,74.386505 
	C4.949865,71.102997 8.511943,68.648315 11.444769,65.590164 
	C27.278833,49.079529 43.021881,32.480061 58.647015,15.771602 
	C63.024452,11.090665 66.896255,5.936882 71.000000,1.000000 
	C76.688042,1.000000 82.376083,1.000000 88.532059,1.000001 
z"/>
<path fill="#49C8C4" opacity="1.000000" stroke="none" 
	d="
M1.000000,54.000000 
	C1.000000,36.407982 1.000000,18.815962 1.000000,1.000000 
	C17.686893,1.000000 34.374790,1.000000 51.450050,1.335324 
	C49.626316,4.545631 47.635639,7.627264 45.166859,10.260680 
	C32.926514,23.317276 20.621248,36.314869 8.174680,49.174347 
	C6.214066,51.200008 3.412653,52.411865 1.000000,54.000000 
z"/>
<path fill="#1FBBB7" opacity="1.000000" stroke="none" 
	d="
M64.008133,65.832016 
	C64.693489,64.040245 64.922379,61.820522 66.137009,60.524960 
	C75.186737,50.872189 84.561729,41.523575 93.579498,31.841854 
	C102.817528,21.923662 111.765793,11.735574 120.920441,1.332808 
	C127.687645,1.000000 134.375290,1.000000 141.459229,1.344863 
	C140.476089,3.720552 139.336487,5.975979 137.678726,7.746177 
	C125.880829,20.344286 114.025375,32.889523 102.088203,45.355785 
	C95.328949,52.414623 88.380241,59.292053 81.108681,66.248978 
	C75.136375,66.108513 69.572250,65.970268 64.008133,65.832016 
z"/>
<path fill="#41C5C1" opacity="1.000000" stroke="none" 
	d="
M1.000000,54.468403 
	C3.412653,52.411865 6.214066,51.200008 8.174680,49.174347 
	C20.621248,36.314869 32.926514,23.317276 45.166859,10.260680 
	C47.635639,7.627264 49.626316,4.545631 51.918709,1.335324 
	C58.021152,1.000000 64.042305,1.000000 70.531731,1.000000 
	C66.896255,5.936882 63.024452,11.090665 58.647015,15.771602 
	C43.021881,32.480061 27.278833,49.079529 11.444769,65.590164 
	C8.511943,68.648315 4.949865,71.102997 1.339104,73.918106 
	C1.000000,67.645599 1.000000,61.291203 1.000000,54.468403 
z"/>
<path fill="#10B7B2" opacity="1.000000" stroke="none" 
	d="
M172.533142,1.000000 
	C171.886566,2.946750 171.108246,5.211760 169.608109,6.791238 
	C153.855896,23.376621 137.936798,39.803467 122.180153,56.384697 
	C116.594955,62.262177 111.374290,68.484726 105.878914,74.449982 
	C104.674088,75.757828 103.008057,76.640808 100.942474,77.736893 
	C97.770805,75.545029 95.211067,73.335732 92.810211,70.755646 
	C93.640671,69.440208 94.205353,68.392860 94.999573,67.566002 
	C112.482590,49.364414 130.048859,31.242279 147.446106,12.959274 
	C150.950180,9.276814 153.831528,5.001808 157.000000,0.999998 
	C162.022095,1.000000 167.044189,1.000000 172.533142,1.000000 
z"/>
<path fill="#17B9B4" opacity="1.000000" stroke="none" 
	d="
M156.533875,0.999998 
	C153.831528,5.001808 150.950180,9.276814 147.446106,12.959274 
	C130.048859,31.242279 112.482590,49.364414 94.999573,67.566002 
	C94.205353,68.392860 93.640671,69.440208 92.547760,70.559341 
	C92.245255,70.550453 92.364082,70.367088 92.082977,70.045319 
	C90.881538,69.649750 90.080040,69.392578 88.940796,69.134613 
	C86.240990,68.172943 83.878929,67.212067 81.516869,66.251190 
	C88.380241,59.292053 95.328949,52.414623 102.088203,45.355785 
	C114.025375,32.889523 125.880829,20.344286 137.678726,7.746177 
	C139.336487,5.975979 140.476089,3.720552 141.927765,1.344863 
	C146.689255,1.000000 151.378510,1.000000 156.533875,0.999998 
z"/>
<path fill="#10B7B2" opacity="1.000000" stroke="none" 
	d="
M47.045273,136.868927 
	C46.144676,138.952484 45.724781,141.484619 44.266289,143.047562 
	C33.986122,154.063889 23.565926,164.952927 13.025671,175.721313 
	C9.489006,179.334534 5.472838,182.478394 1.337922,185.918396 
	C1.000000,180.311966 1.000000,174.623917 1.332790,168.387665 
	C6.148840,163.499985 10.718050,159.245239 15.096768,154.802734 
	C23.231697,146.549316 31.255495,138.186371 39.608093,130.027039 
	C42.275505,132.413010 44.660385,134.640976 47.045273,136.868927 
z"/>
<path fill="#17B9B4" opacity="1.000000" stroke="none" 
	d="
M39.325562,129.869034 
	C31.255495,138.186371 23.231697,146.549316 15.096768,154.802734 
	C10.718050,159.245239 6.148840,163.499985 1.332790,167.919739 
	C1.000000,162.311966 1.000000,156.623917 1.332623,150.387878 
	C2.116372,149.636826 2.680954,149.544342 3.002124,149.214706 
	C12.232999,139.740250 21.476408,130.277161 30.593634,120.694122 
	C31.521206,119.719154 31.666279,117.999733 32.469204,116.835693 
	C34.206306,119.936729 35.648678,122.827850 37.221840,125.949249 
	C37.573257,126.454285 37.793884,126.729034 38.100937,127.076004 
	C38.187366,127.148224 38.047035,127.324432 38.190300,127.619446 
	C38.570450,128.280121 38.807335,128.645782 39.142860,129.216553 
	C39.241501,129.421677 39.325565,129.869034 39.325562,129.869034 
z"/>
<path fill="#1FBBB7" opacity="1.000000" stroke="none" 
	d="
M32.174469,116.625778 
	C31.666279,117.999733 31.521206,119.719154 30.593634,120.694122 
	C21.476408,130.277161 12.232999,139.740250 3.002124,149.214706 
	C2.680954,149.544342 2.116372,149.636826 1.332623,149.919922 
	C1.000000,143.978851 1.000000,137.957703 1.000000,131.468277 
	C3.998270,128.464081 7.241396,126.162689 9.942717,123.342361 
	C15.209728,117.843323 20.086630,111.971352 25.330633,106.449013 
	C26.482746,105.235764 28.493341,104.837730 30.525463,104.472961 
	C31.353043,108.796356 31.763756,112.711067 32.174469,116.625778 
z"/>
<path fill="#F6FBFB" opacity="1.000000" stroke="none" 
	d="
M32.469200,116.835693 
	C31.763756,112.711067 31.353043,108.796356 30.881382,104.445114 
	C31.428801,82.879860 46.554432,69.194725 63.616089,65.912735 
	C69.572250,65.970268 75.136375,66.108513 81.108681,66.248978 
	C83.878929,67.212067 86.240990,68.172943 89.250748,69.479294 
	C90.759933,69.944420 91.621429,70.064072 92.482918,70.183723 
	C92.364082,70.367088 92.245255,70.550453 92.388885,70.930122 
	C95.211067,73.335732 97.770805,75.545029 100.633591,77.886032 
	C106.645088,84.917191 110.706673,92.554573 111.252876,101.297874 
	C120.036720,98.327599 128.692749,95.400536 137.930786,92.276672 
	C133.642059,80.083733 135.595383,68.417252 147.440536,59.897038 
	C156.153915,53.629494 165.618149,53.492496 175.641235,57.794559 
	C179.434021,61.098259 183.306854,64.002274 186.214752,67.671082 
	C191.581604,74.442337 190.939682,82.282944 188.840240,90.522903 
	C185.678741,97.138390 181.463623,102.329117 174.527222,105.479683 
	C183.432312,113.485703 189.441635,122.843399 192.005493,134.984253 
	C192.367172,136.033615 192.641190,136.365662 192.915192,136.697708 
	C192.946655,140.832169 192.978119,144.966644 193.096710,149.553925 
	C190.864914,173.353821 173.146866,192.924347 151.133087,196.310028 
	C136.373459,198.626495 122.960304,196.133102 110.571045,187.438751 
	C100.482750,179.502136 93.853516,169.620728 90.205910,157.300018 
	C89.650017,151.534454 89.275856,146.091156 88.875374,140.264908 
	C78.884766,144.350967 68.792786,145.389069 58.616001,141.849396 
	C54.885036,140.551682 51.375286,138.617966 47.404945,136.921661 
	C44.660385,134.640976 42.275505,132.413010 39.608093,130.027039 
	C39.325565,129.869034 39.241501,129.421677 39.137329,128.861603 
	C38.704453,127.975815 38.375744,127.650124 38.047035,127.324432 
	C38.047035,127.324432 38.187366,127.148224 38.054634,126.797295 
	C37.644955,126.203903 37.368000,125.961433 37.091049,125.718971 
	C35.648678,122.827850 34.206306,119.936729 32.469200,116.835693 
M42.476589,123.976662 
	C45.552128,126.848045 48.627663,129.719437 52.203007,133.050278 
	C58.527664,137.319458 65.598175,138.542892 73.061058,138.145660 
	C86.081741,137.452591 95.840164,131.250046 101.914238,119.907478 
	C108.060608,108.429893 107.340485,96.912788 100.041733,86.024132 
	C99.111870,84.636925 97.452644,83.738609 95.922768,81.994957 
	C93.341698,79.784584 90.760628,77.574211 87.651070,74.929749 
	C83.786400,73.748123 79.921722,72.566498 75.298462,71.102501 
	C49.088795,68.420486 30.903383,91.884064 37.363644,113.700645 
	C38.967365,116.910812 40.571091,120.120979 42.476589,123.976662 
M175.929520,65.243103 
	C168.228638,58.490685 155.322678,59.198017 147.605652,66.795433 
	C140.024185,74.259392 139.449463,85.860779 146.558807,94.848686 
	C153.334152,102.226669 164.514923,104.314079 173.269119,99.835388 
	C181.927582,95.405685 186.265869,86.541237 184.029221,76.991867 
	C182.947296,72.372574 181.409286,67.733650 175.929520,65.243103 
M115.171471,178.760483 
	C122.811630,185.520538 132.118042,188.272354 141.899429,187.828598 
	C159.925217,187.010773 173.362488,178.123779 180.340240,161.392853 
	C187.137604,145.094498 183.786194,129.994461 171.824951,116.165230 
	C157.054138,101.312218 135.175995,98.625183 118.027702,109.557953 
	C101.080635,120.362450 93.802826,141.472702 101.004601,160.088226 
	C103.814682,167.351837 107.443626,174.326141 115.171471,178.760483 
z"/>
<path fill="#0AA29D" opacity="1.000000" stroke="none" 
	d="
M192.804337,136.409454 
	C192.641190,136.365662 192.367172,136.033615 192.110718,135.363190 
	C192.316681,135.390259 192.505081,135.755722 192.804337,136.409454 
z"/>
<path fill="#10B7B2" opacity="1.000000" stroke="none" 
	d="
M92.082977,70.045319 
	C91.621429,70.064072 90.759933,69.944420 89.588493,69.480087 
	C90.080040,69.392578 90.881538,69.649750 92.082977,70.045319 
z"/>
<path fill="#10B7B2" opacity="1.000000" stroke="none" 
	d="
M37.221840,125.949249 
	C37.368000,125.961433 37.644955,126.203903 37.968208,126.725075 
	C37.793884,126.729034 37.573257,126.454285 37.221840,125.949249 
z"/>
<path fill="#10B7B2" opacity="1.000000" stroke="none" 
	d="
M38.190300,127.619446 
	C38.375744,127.650124 38.704453,127.975815 39.038689,128.656479 
	C38.807335,128.645782 38.570450,128.280121 38.190300,127.619446 
z"/>
<path fill="#0BADA8" opacity="1.000000" stroke="none" 
	d="
M114.964478,178.102921 
	C107.443626,174.326141 103.814682,167.351837 101.004601,160.088226 
	C93.802826,141.472702 101.080635,120.362450 118.027702,109.557953 
	C135.175995,98.625183 157.054138,101.312218 171.786194,116.767609 
	C170.843933,118.338745 169.950531,119.317177 169.035294,120.274742 
	C160.573074,129.128464 152.088776,137.961182 143.647919,146.835220 
	C136.709503,154.129730 129.779388,161.433105 122.931427,168.812195 
	C120.158455,171.800232 117.613297,174.999680 114.964478,178.102921 
z"/>
<path fill="#0AA8A3" opacity="1.000000" stroke="none" 
	d="
M115.067978,178.431702 
	C117.613297,174.999680 120.158455,171.800232 122.931427,168.812195 
	C129.779388,161.433105 136.709503,154.129730 143.647919,146.835220 
	C152.088776,137.961182 160.573074,129.128464 169.035294,120.274742 
	C169.950531,119.317177 170.843933,118.338745 171.927353,117.067001 
	C183.786194,129.994461 187.137604,145.094498 180.340240,161.392853 
	C173.362488,178.123779 159.925217,187.010773 141.899429,187.828598 
	C132.118042,188.272354 122.811630,185.520538 115.067978,178.431702 
z"/>
<path fill="#0BB3AE" opacity="1.000000" stroke="none" 
	d="
M96.131310,82.613808 
	C97.452644,83.738609 99.111870,84.636925 100.041733,86.024132 
	C107.340485,96.912788 108.060608,108.429893 101.914238,119.907478 
	C95.840164,131.250046 86.081741,137.452591 73.061058,138.145660 
	C65.598175,138.542892 58.527664,137.319458 52.140041,132.494324 
	C64.819664,118.319397 77.617752,104.751556 90.254112,91.034714 
	C92.552223,88.540085 94.189148,85.436356 96.131310,82.613808 
z"/>
<path fill="#0BADA8" opacity="1.000000" stroke="none" 
	d="
M176.145996,65.934998 
	C181.409286,67.733650 182.947296,72.372574 184.029221,76.991867 
	C186.265869,86.541237 181.927582,95.405685 173.269119,99.835388 
	C164.514923,104.314079 153.334152,102.226669 146.812286,94.468872 
	C149.010208,92.925873 151.311951,92.110420 152.839081,90.541145 
	C160.717316,82.445419 168.397018,74.156509 176.145996,65.934998 
z"/>
<path fill="#1FBBB7" opacity="1.000000" stroke="none" 
	d="
M37.267670,113.007462 
	C30.903383,91.884064 49.088795,68.420486 75.657532,71.665176 
	C74.846558,74.482346 74.081863,77.101425 72.437645,78.929405 
	C64.511024,87.741997 56.512798,96.504883 48.183014,104.932594 
	C45.039333,108.113235 40.934410,110.343803 37.267670,113.007462 
z"/>
<path fill="#17B9B4" opacity="1.000000" stroke="none" 
	d="
M37.315659,113.354050 
	C40.934410,110.343803 45.039333,108.113235 48.183014,104.932594 
	C56.512798,96.504883 64.511024,87.741997 72.437645,78.929405 
	C74.081863,77.101425 74.846558,74.482346 76.036827,71.806366 
	C79.921722,72.566498 83.786400,73.748123 87.865463,75.547607 
	C85.698853,79.475296 83.644951,83.091858 80.879417,86.041107 
	C69.758858,97.900444 58.462738,109.596977 47.090797,121.215973 
	C45.936626,122.395218 43.836151,122.648285 42.174816,123.331146 
	C40.571091,120.120979 38.967365,116.910812 37.315659,113.354050 
z"/>
<path fill="#10B7B2" opacity="1.000000" stroke="none" 
	d="
M42.325703,123.653900 
	C43.836151,122.648285 45.936626,122.395218 47.090797,121.215973 
	C58.462738,109.596977 69.758858,97.900444 80.879417,86.041107 
	C83.644951,83.091858 85.698853,79.475296 88.129700,75.764648 
	C90.760628,77.574211 93.341698,79.784584 96.027039,82.304382 
	C94.189148,85.436356 92.552223,88.540085 90.254112,91.034714 
	C77.617752,104.751556 64.819664,118.319397 51.890137,132.264587 
	C48.627663,129.719437 45.552128,126.848045 42.325703,123.653900 
z"/>
<path fill="#0BB2AD" opacity="1.000000" stroke="none" 
	d="
M176.037766,65.589050 
	C168.397018,74.156509 160.717316,82.445419 152.839081,90.541145 
	C151.311951,92.110420 149.010208,92.925873 146.657364,94.135559 
	C139.449463,85.860779 140.024185,74.259392 147.605652,66.795433 
	C155.322678,59.198017 168.228638,58.490685 176.037766,65.589050 
z"/>
</svg>